<?xml version="1.0" encoding="UTF-8"?>
<svg id="Layer_1" xmlns="http://www.w3.org/2000/svg" version="1.1" viewBox="0 0 1080 1080">
  <!-- Generator: Adobe Illustrator 30.0.0, SVG Export Plug-In . SVG Version: 2.1.1 Build 123)  -->
  <defs>
    <style>
      .st0 {
        fill: #c3a965;
      }

      .st0, .st1, .st2, .st3 {
        stroke: #fff;
        stroke-miterlimit: 10;
        stroke-width: 2px;
      }

      .st1 {
        fill: #4960b9;
      }

      .st2 {
        fill: #e54e51;
      }

      .st3 {
        fill: #53c4c8;
      }
    </style>
  </defs>
  <path class="st1" d="M533.1,367.48c-9.02-9.9-18.86-19.05-28.35-28.51-.99.61-1.97,1.23-2.96,1.84,0,19.45,2.1,39.17-.47,58.28-4.35,32.25,5.73,56.89,31.82,75.56.51.36.98.8,1.39,1.27,3.61,4.16,6.97,4.46,11.04.21,8.91-9.29,18.49-17.95,27.02-27.56,3-3.38,5.15-8.78,5.22-13.28.5-29,.34-58.01.32-87.01,0-2.34-.59-4.69-1.18-8.98-3.67,2.69-6.22,4.15-8.24,6.14-7.38,7.27-14.78,14.55-21.81,22.16-4.92,5.33-8.6,5.61-13.8-.09h0Z"/>
  <path class="st1" d="M344.17,578.27c31.21.11,62.41.17,93.62.09,2.4,0,5.54-.39,7.07-1.88,11.82-11.52,23.33-23.35,35.54-35.7-11.81-11.58-22.59-22.59-33.96-32.95-2.63-2.4-7.3-3.53-11.06-3.57-28.69-.3-57.38-.23-86.07-.13-3.05,0-6.08,1.01-9.12,1.54-.74,1.33-1.48,2.66-2.22,3.98,11.84,10.14,23.69,20.27,37.28,31.91-13.38,12.8-24.87,23.79-36.97,35.37,2.44.58,4.16,1.33,5.88,1.33v.02Z"/>
  <path class="st1" d="M546.84,714.19c7.45,8.11,15.42,15.73,23.33,23.39,1.77,1.71,4.21,2.74,7.9,5.07,0-34.63.08-67.06-.16-99.49-.02-2.5-1.79-5.46-3.61-7.38-9.77-10.24-19.77-20.25-29.77-30.26-3.38-3.38-6.55-3.98-10.39.09-8.44,8.93-17.93,16.93-25.79,26.33-3.69,4.41-6.18,11.06-6.46,16.85-.81,16.67-.22,33.41-.19,50.13.02,14.02,0,28.04,0,42.06.9.28,1.82.57,2.72.84,2.63-2.15,5.43-4.13,7.86-6.49,7.24-7.03,14.57-13.98,21.39-21.41,4.88-5.32,8.47-4.84,13.16.28h0Z"/>
  <path class="st1" d="M733.39,504.07c-30.2-.07-60.39-.09-90.59.04-2.72,0-6.29.22-8,1.86-11.71,11.26-23.03,22.93-35.53,35.53,11.11,10.85,20.86,21.09,31.45,30.36,3.82,3.35,9.62,6.09,14.58,6.2,27.03.56,54.09.21,81.15.17h14.37c.41-1.03.82-2.07,1.23-3.1-11.89-10.94-23.77-21.86-36.72-33.78,12.64-12.7,23.73-23.86,35.63-35.81-3.4-.69-5.47-1.47-7.55-1.48h0Z"/>
  <path class="st2" d="M561.72,269.89c5.83,2.72,15.75.31,18.9,4.19,3.49,4.3,1.34,13.17,1.64,20.06.05,1.26.04,2.52.04,3.79v24.26c2.8-.55,3.61-.46,3.98-.82,22.3-22.24,44.64-44.43,66.7-66.91,2.16-2.2,3.54-6.1,3.63-9.25.37-13.85,0-27.73.16-41.59.07-6.14-2.5-8.23-8.6-8.03-11.65.37-23.37-.59-34.96.32-5.48.43-11.96,2.56-15.87,6.21-16.8,15.69-32.85,32.19-49.03,48.54-1.54,1.56-3.36,5.53-2.83,6.04,5.08,4.81,10.07,10.33,16.22,13.21v-.03Z"/>
  <path class="st3" d="M754.65,372.62c5.46,4.35,5.33,7.98,0,12.82-10.65,9.68-20.7,20.01-32.42,31.46,3.85,1.12,5,1.75,6.15,1.75,31.5.07,63.01.19,94.51-.1,3.02-.03,6.62-2.06,8.91-4.25,9.58-9.11,18.56-18.84,28.16-27.93,4.87-4.61,4.61-8.13.04-12.59-9.46-9.22-18.51-18.87-28.07-27.99-2.3-2.19-5.89-4.22-8.93-4.27-24.56-.34-49.14-.17-73.71-.21-4.58,0-6.09,1.75-6.8,6.65-1.65,11.42,4.28,18.37,12.17,24.65h-.02Z"/>
  <path class="st2" d="M494.18,638.78c1.77-1.8,3.05-4.91,3.09-7.44.27-13.86.03-27.73.07-41.59,0-5.14-2.23-7.26-7.49-7.17-11.34.22-22.76-.77-34,.33-6.01.59-12.98,3.12-17.3,7.16-16.8,15.67-32.72,32.26-48.91,48.56-5.89,5.93-11.61,12.01-17.41,18.03.46.83.94,1.65,1.4,2.49h28.11c21.64,0,20.1-3.36,20.05,20.21-.02,9.19,0,18.38,0,29.07,3.54-1.85,5.41-2.34,6.59-3.51,22.01-21.97,43.99-43.96,65.79-66.13h0Z"/>
  <path class="st2" d="M651.12,376.97c-21.58,21.54-43.23,43.01-64.56,64.81-2.35,2.4-3.91,6.57-4.03,9.99-.48,13.2-.1,26.43-.31,39.65-.1,6.57,2.78,8.78,9.2,8.54,11-.4,22.08.55,33.01-.44,5.39-.49,11.62-2.83,15.51-6.44,14.7-13.67,28.6-28.19,42.77-42.42,8.27-8.3,16.47-16.66,26.38-26.68-5.42-.43-8.37-.84-11.33-.86-11.01-.07-22.04-.15-33.04.08-6.04.13-8.44-2.22-8.2-8.4.42-10.69.31-21.4.25-32.1-.02-2.5-.7-5.01-1.25-8.63-2.46,1.61-3.6,2.11-4.41,2.93h0Z"/>
  <path class="st3" d="M245.48,412.75c3.5,3.23,9.19,5.62,13.92,5.7,29.25.52,58.52.29,87.77.25,2.68,0,5.34-.43,8.65-.71-.47-2.02-.45-2.43-.64-2.62-7.49-7.59-14.94-15.22-22.53-22.72-9.04-8.93-9.25-17.81-.64-26.66.88-.9,2.37-1.71,2.52-2.72.95-6.36,2.26-12.82,1.76-19.11-.1-1.25-7.54-2.67-11.62-2.72-21.39-.28-42.79-.29-64.18,0-3.81.05-8.61.88-11.23,3.25-10.46,9.49-20.53,19.49-30.05,29.93-1.81,1.98-2.04,8.12-.36,10.11,8.31,9.82,17.13,19.29,26.59,28.01h.02Z"/>
  <path class="st0" d="M883.84,608.59c-.11-3.37-1.9-7.43-4.26-9.89-17.23-17.91-34.81-35.5-52.52-53.42-13.3,6.8-16.49,11.79-16.56,24.53-.05,8.54-4.39,12.82-13.04,12.85-8.19.02-16.38-.14-24.56-.02-4.45.07-8.89.55-14.43.92,1.77,3.17,2.37,5.08,3.61,6.32,21.54,21.64,43.04,43.33,64.95,64.6,2.77,2.68,7.77,4.06,11.82,4.25,12.26.56,24.57-.07,36.83.4,6.22.23,8.46-1.95,8.37-8.02-.2-14.17.23-28.36-.22-42.52h0Z"/>
  <path class="st0" d="M240.02,658.68c5.13-.37,11.2-2.58,14.84-6.07,20.47-19.61,40.36-39.82,60.34-59.94,2.23-2.25,3.77-5.18,6.59-9.15-4.33-.41-6.69-.82-9.06-.83-11.97-.06-23.95-.26-35.91.09-5.75.17-8.12-1.82-7.76-7.57.28-4.4,1.46-9.51-.27-13.08-2.7-5.58-7.2-10.48-11.72-14.87-1.02-.98-6.07.54-7.89,2.32-16.61,16.35-33.02,32.9-49.2,49.68-2.16,2.24-3.75,6-3.84,9.1-.4,14.49-.08,29-.21,43.49-.04,5.14,1.76,7.33,7.22,7.19,12.28-.32,24.62.48,36.85-.4h0Z"/>
  <path class="st3" d="M476.59,304.32c5.89,5.87,11.74,11.76,19.59,19.61.61-5.83,1.14-8.75,1.17-11.67.09-10.08.52-20.18-.15-30.21-.63-9.35,3.32-12.97,12.08-11.62,9.46,1.45,16.11-2.62,22.43-9.17,4.2-4.35,3.72-7.06-.17-10.87-10.11-9.91-21.04-19.22-29.77-30.25-15.59-19.71-34.58-28.96-59.7-24.57-2.75.48-5.7.4-8.48.03-8.66-1.2-10.82,3.04-10.52,10.88.42,11.31.77,22.73-.32,33.96-.66,6.81,1.17,11.44,5.7,15.93,16.11,15.93,32.1,31.97,48.13,47.98l.02-.02Z"/>
  <path class="st0" d="M838.55,423.33c-4.52.21-9.99,2.22-13.17,5.31-21.19,20.57-41.9,41.64-62.7,62.61-1.8,1.81-3.06,4.15-4.81,6.56,1.99.99,2.78,1.72,3.59,1.74,10.07.17,20.14.33,30.21.3,18.07-.05,18.07-.1,18.8,17.36.04.95-.29,2.19.19,2.79,3.98,5.01,7.64,10.5,12.54,14.39,1.18.94,7.25-2.93,10.05-5.64,15.6-15.09,30.92-30.47,46.2-45.88,1.89-1.91,4.21-4.6,4.26-6.97.36-17.23.2-34.47.2-52.82-15.9,0-30.66-.41-45.36.25h0Z"/>
  <path class="st1" d="M732.21,745.32c-8.92-1.83-16.12,1.03-22.45,8.3-8.15,9.38-8.7,8.91-17.5.04-7.3-7.36-14.52-14.8-21.95-22.03-2.26-2.2-5.1-3.83-7.95-5.92-.77,1.92-1.19,2.5-1.2,3.08-.07,31.17-.18,62.35,0,93.52.02,2.87,1.33,6.32,3.2,8.5,10.87,12.59,22.09,24.88,34.37,38.6,14.48-14.76,25.74-26.06,36.72-37.63,1.51-1.6,2.34-4.47,2.37-6.77.34-24.56.62-49.12.37-73.68-.02-2.11-3.61-5.54-6.01-6.03h0Z"/>
  <path class="st2" d="M372.67,423.07c15.06,17.92,32.04,32.46,46.11,49.44,17.36,20.95,37.02,32.86,64.85,27.38,1.51-.29,3.15-.03,4.72.12,6.42.64,9.21-2.1,9.09-8.66-.22-12.29.56-24.63-.29-36.86-.35-5.08-2.63-11.08-6.1-14.7-18.28-19.08-37.21-37.52-55.94-56.17-3.42-3.4-6.88-6.74-10.33-10.11-1.03.49-2.06.98-3.11,1.47,0,11.87.02,23.75,0,35.62-.01,8.27-4.2,12.42-12.56,12.45-12.14.03-24.28,0-36.42,0h0Z"/>
  <path class="st2" d="M671.81,659.1c11.47-.02,22.94,0,37.08,0-4.22-5.13-6.47-8.35-9.19-11.11-16.35-16.54-33.32-32.49-49.04-49.6-10.76-11.7-22.38-18.28-38.64-15.84-6.46.96-13.22.53-19.79-.02-7.39-.62-10.26,2.1-10.02,9.57.38,11.63-.63,23.35.38,34.91.46,5.33,3.12,11.51,6.81,15.36,19.5,20.36,39.63,40.11,59.59,60.03,1.85,1.85,4.01,3.38,7.61,6.38.77-4.64,1.51-7.23,1.56-9.83.15-8.81.12-17.62.03-26.43-.12-13.37-.16-13.39,13.63-13.41h0Z"/>
  <path class="st2" d="M656.38,838.45c-.32-4.78-2.59-10.39-5.83-13.87-12.39-13.32-25.49-25.96-38.41-38.79-9.02-8.96-18.15-17.8-28.94-28.36-.43,5.7-.86,9.02-.89,12.33-.09,10.39-.39,20.79.1,31.16.34,7.42-2.44,11.01-9.75,9.71-13.29-2.36-21.12,4.98-28.02,14.7.46.95.67,1.94,1.28,2.56,17.48,17.68,34.8,35.53,52.7,52.79,3.01,2.9,8.44,4.32,12.85,4.54,11.93.59,23.93-.1,35.88.27,6.9.22,9.71-2.25,9.51-9.27-.36-12.59.36-25.22-.48-37.76h0Z"/>
  <path class="st1" d="M663.93,356.13c12.32-11.99,24.64-23.97,37.34-36.34,5.33,5.07,9.41,10.9,15.01,13.72,5.43,2.73,12.39,2.67,18.73,3.01,1.01.05,3.23-4.22,3.24-6.51.14-23.31.19-46.63-.42-69.93-.11-4.21-2.43-9.18-5.32-12.35-8.66-9.51-18.33-18.07-27.11-27.46-3.7-3.96-6.28-4.25-10.04-.54-9.83,9.71-20.13,18.98-29.6,29.03-2.67,2.82-4.37,7.69-4.43,11.65-.43,28.67-.34,57.34-.37,86.01,0,2.7.39,5.39.59,8.1.79.54,1.58,1.08,2.37,1.62h0Z"/>
  <path class="st3" d="M509.84,810.39c-11.8,1.45-12.43-.09-12.43-12.56v-37.36c-1.06-.39-2.11-.77-3.17-1.15-23.21,23.37-46.49,46.68-69.54,70.21-1.74,1.77-2.57,5.17-2.55,7.8.13,13.2.86,26.39,1,39.59.06,5.95,2.26,8.63,8.38,8.54,12.91-.2,25.86.4,38.74-.29,4.22-.23,9.05-2.59,12.25-5.48,8.87-8,17.05-16.79,25.48-25.29,9.42-9.51,18.82-19.05,28.47-28.82-8.35-7.7-13.78-16.77-26.64-15.19h0Z"/>
  <path class="st0" d="M199.22,481.69c16.79,17.06,33.94,33.76,50.83,50.73,3.75,3.77,6.59,3.49,10.39.05,5.91-5.34,9.34-11.09,8.88-19.63-.69-13.04-.14-13.04,13.27-13.02,12.84.03,25.68,0,41.59,0-3.63-4.54-5.14-6.81-7.02-8.72-16.34-16.55-33.51-32.33-48.88-49.74-12.71-14.39-26.78-21.39-46.08-18.48-8.44,1.27-17.23.22-26.2.22,0,17.96-.15,34.02.14,50.08.05,2.89,1.12,6.53,3.05,8.5h.02Z"/>
  <path class="st3" d="M324.97,696.33c10.31-9.56,20.06-19.7,32.14-31.68-5.4-.6-8.04-1.14-10.69-1.15-27.1-.05-54.22.49-81.31-.28-10.76-.3-18.51,2.77-25.28,10.92-6.21,7.48-13.29,14.26-20.26,21.07-4.17,4.09-4.8,7.38-.25,11.75,10.21,9.79,19.95,20.07,30.2,29.84,2.06,1.97,5.48,3.52,8.29,3.55,23.95.31,47.91.22,71.85.28,5.67.02,6.86-3.17,7.8-8.33,2.1-11.56-5.89-17.38-12.49-23.78-4.75-4.61-4.97-7.59,0-12.2h0Z"/>
  <path class="st1" d="M416.42,727.4c-1.98.24-3.23,0-3.76.52-6.58,6.3-13.11,12.66-19.55,19.1-9.37,9.4-18.86,9.9-28.45,1.5-.47-.41-.82-1.28-1.29-1.33-6.12-.74-12.26-1.76-18.38-1.7-1.17,0-3.28,4.33-3.3,6.68-.19,23.95-.15,47.91.15,71.86.03,2.83,1.21,6.35,3.12,8.33,10.88,11.28,22.16,22.19,34.15,34.07,11.87-11.21,23.66-21.61,34.4-33.01,2.95-3.13,3.77-9.24,3.82-14.01.33-28.36.17-56.74.09-85.1,0-2.27-.65-4.54-1.02-6.9h.02Z"/>
  <path class="st1" d="M360.17,336.65c2.44-.77,4.36-3.31,6.4-5.17,4.05-3.68,8.03-7.46,15.05-14.02,11.61,12.83,22.44,24.8,33.84,37.39,1.06-2.17,1.79-2.98,1.79-3.79.18-30.88.46-61.77.22-92.65-.03-3.7-1.99-8.21-4.56-10.93-9.08-9.59-18.96-18.41-28.23-27.83-4.13-4.2-6.93-3.75-10.83.35-8.68,9.11-18.15,17.49-26.6,26.8-2.86,3.14-4.97,8.16-5.09,12.38-.63,21.11-.44,42.23-.62,63.35-.12,14.16,5.2,18.38,18.64,14.1h0Z"/>
  <path class="st3" d="M833.87,669.5c-3.57-3.2-9.22-5.63-13.96-5.71-28.97-.54-57.95-.34-86.93-.31-2.6,0-5.19.55-10.37,1.14,12.01,11.82,22.04,22.05,32.49,31.84,4.84,4.53,5.01,8.04-.03,12.31-3.33,2.83-7.63,5.71-8.95,9.46-2.07,5.89-2.93,12.66-2.24,18.82.18,1.64,7.84,3.41,12.09,3.48,20.79.34,41.58.21,62.36,0,3.29-.03,7.54-.28,9.67-2.25,12.69-11.67,24.88-23.87,38.27-36.89-11.79-11.74-21.69-22.28-32.42-31.9h0Z"/>
  <path class="st0" d="M592.65,541.49c-3.88-4.15-6.93-6.88-9.33-10.12-2.12-2.87-4.24-6.12-5-9.5-.88-3.9.43-8.31-.57-12.15-.57-2.17-4.02-5.3-5.9-5.13-11.31,1.05-19.86-2.99-27.35-11.33-1.4-1.57-8.08-1.02-9.92.89-6.99,7.23-14.43,11.56-24.87,10.11-5.69-.79-8.85,1.85-7.96,8.29,1.26,9.27-.86,17.32-8.91,23.21-1.85,1.35-2.88,3.82-4.93,6.64,11.6,6.48,15.89,16.04,13.85,28.57-1.06,6.51,3.61,7.46,8.33,6.81,10.31-1.43,18.41,1.98,24.56,10.16,3.3,4.39,7.12,4.41,10.14.51,7.06-9.11,16-12.09,27.21-10.93,1.81.19,6.05-4.16,5.79-5.91-1.92-13.03,3.6-22.34,14.87-30.11h0Z"/>
</svg>